<?xml version="1.0" encoding="UTF-8" standalone="no" ?>
<!DOCTYPE svg PUBLIC "-//W3C//DTD SVG 1.1//EN" "http://www.w3.org/Graphics/SVG/1.1/DTD/svg11.dtd">
<svg xmlns="http://www.w3.org/2000/svg" xmlns:xlink="http://www.w3.org/1999/xlink" version="1.1" width="1280" height="1024" viewBox="0 0 1280 1024" xml:space="preserve">
<desc>Created with Fabric.js 3.6.3</desc>
<defs>
</defs>
<g transform="matrix(1.9662058371735787 0 0 1.9662058371735787 640.2456813819576 512.1966205837173)" id="background-logo"  >
<rect style="stroke: none; stroke-width: 1; stroke-dasharray: none; stroke-linecap: butt; stroke-dashoffset: 0; stroke-linejoin: miter; stroke-miterlimit: 4; fill: rgb(237,246,213); fill-rule: nonzero; opacity: 1;"  paint-order="stroke"  x="-325" y="-260" rx="0" ry="0" width="650" height="520" />
</g>
<g transform="matrix(1.9699870022450665 0 0 1.9699870022450665 640.2456813819576 364.28505321772934)" id="logo-logo"  >
<g style=""  paint-order="stroke"   >
		<g transform="matrix(0.16350726009734637 0 0 -0.16350726009734637 -72.22671603184116 -89.84551889341239)"  >
<linearGradient id="SVGID_6_5_570614" gradientUnits="userSpaceOnUse" gradientTransform="matrix(1 0 0 1 0 1102.1400000000003)"  x1="0" y1="0" x2="0" y2="451">
<stop offset="0%" style="stop-color:rgb(91,36,122);stop-opacity: 1"/>
<stop offset="100%" style="stop-color:rgb(27,206,223);stop-opacity: 1"/>
</linearGradient>
<path style="stroke: none; stroke-width: 1; stroke-dasharray: none; stroke-linecap: butt; stroke-dashoffset: 0; stroke-linejoin: miter; stroke-miterlimit: 4; fill: url(#SVGID_6_5_570614); fill-rule: nonzero; opacity: 1;"  paint-order="stroke"  transform=" translate(-147.166, -1327.4700000000003)" d="M 294.332 1552.8 V 1307 L 0 1102.14 v 450.66 h 294.332" stroke-linecap="round" />
</g>
		<g transform="matrix(0.16350726009734637 0 0 -0.16350726009734637 0 3.0681282782482526)"  >
<linearGradient id="SVGID_8_6_570615" gradientUnits="userSpaceOnUse" gradientTransform="matrix(1 0 0 1 0 0)"  x1="0" y1="0" x2="0" y2="1512">
<stop offset="0%" style="stop-color:rgb(245,81,95);stop-opacity: 1"/>
<stop offset="100%" style="stop-color:rgb(159,4,27);stop-opacity: 1"/>
</linearGradient>
<path style="stroke: none; stroke-width: 1; stroke-dasharray: none; stroke-linecap: butt; stroke-dashoffset: 0; stroke-linejoin: miter; stroke-miterlimit: 4; fill: url(#SVGID_8_6_570615); fill-rule: nonzero; opacity: 1;"  paint-order="stroke"  transform=" translate(-588.9, -756.055)" d="M 883.469 660.996 L 883.234 948.43 L 818.988 993.16 L 588.902 1153.53 L 349.535 986.738 L 294.332 948.43 V 842.547 L 294.332 0 H 0 V 1102.14 L 294.332 1307 L 588.902 1512.11 L 1177.8 1102.14 V 366.664 H 441.617 V 906.789 L 588.902 1009.34 L 736.188 906.789 V 660.996 h 147.281" stroke-linecap="round" />
</g>
</g>
</g>
<g transform="matrix(1.9699870022450665 0 0 1.9699870022450665 639.8250891569783 743.2183857296975)" id="text-logo-path"  >
<linearGradient id="SVGID_12_10_8_570617" gradientUnits="userSpaceOnUse" gradientTransform="matrix(1 0 0 1 2.4399999999999977 -43.13)"  x1="0" y1="0" x2="0" y2="69">
<stop offset="0%" style="stop-color:rgb(245,81,95);stop-opacity: 1"/>
<stop offset="100%" style="stop-color:rgb(159,4,27);stop-opacity: 1"/>
</linearGradient>
<path style="stroke: none; stroke-width: 0; stroke-dasharray: none; stroke-linecap: butt; stroke-dashoffset: 0; stroke-linejoin: miter; stroke-miterlimit: 4; fill: url(#SVGID_12_10_8_570617); fill-rule: nonzero; opacity: 1;"  paint-order="stroke"  transform=" translate(-313.51, 21.26)" d="M 9.58 0 L 2.75 0 Q 2.44 0 2.44 -0.3 L 2.44 -0.3 L 2.56 -42.21 Q 2.56 -42.46 2.81 -42.46 L 2.81 -42.46 L 14.52 -42.46 Q 20.13 -42.46 23.39 -39.04 Q 26.66 -35.62 26.66 -29.77 L 26.66 -29.77 Q 26.66 -25.44 24.95 -22.27 Q 23.24 -19.09 20.5 -17.38 Q 17.75 -15.68 14.52 -15.68 L 14.52 -15.68 L 9.88 -15.68 L 9.88 -0.3 Q 9.88 0 9.58 0 L 9.58 0 Z M 9.88 -35.14 L 9.88 -23.06 L 14.52 -23.06 Q 16.47 -23.06 17.9 -24.92 Q 19.34 -26.78 19.34 -29.77 L 19.34 -29.77 Q 19.34 -32.15 18.06 -33.67 Q 16.77 -35.2 14.52 -35.2 L 14.52 -35.2 L 9.88 -35.14 Z M 37.94 0 L 31.05 0 Q 30.8 0 30.8 -0.3 L 30.8 -0.3 L 30.93 -42.21 Q 30.93 -42.46 31.17 -42.46 L 31.17 -42.46 L 43.49 -42.46 Q 46.79 -42.46 49.56 -40.84 Q 52.34 -39.22 53.98 -36.51 Q 55.63 -33.79 55.63 -30.38 L 55.63 -30.38 Q 55.63 -28.12 54.96 -26.32 Q 54.29 -24.52 53.38 -23.27 Q 52.46 -22.02 51.73 -21.41 L 51.73 -21.41 Q 55.02 -17.75 55.02 -12.81 L 55.02 -12.81 L 55.08 -0.3 Q 55.08 0 54.78 0 L 54.78 0 L 47.88 0 Q 47.64 0 47.64 -0.18 L 47.64 -0.18 L 47.64 -12.81 Q 47.64 -15.01 46.09 -16.62 Q 44.53 -18.24 42.27 -18.24 L 42.27 -18.24 L 38.25 -18.24 L 38.19 -0.3 Q 38.19 0 37.94 0 L 37.94 0 Z M 38.25 -35.14 L 38.25 -25.56 L 43.49 -25.56 Q 45.38 -25.56 46.85 -26.96 Q 48.31 -28.36 48.31 -30.38 L 48.31 -30.38 Q 48.31 -32.33 46.88 -33.73 Q 45.44 -35.14 43.49 -35.14 L 43.49 -35.14 L 38.25 -35.14 Z M 71.19 0.61 L 71.19 0.61 Q 67.89 0.61 65.18 -1.07 Q 62.46 -2.75 60.82 -5.52 Q 59.17 -8.3 59.17 -11.65 L 59.17 -11.65 L 59.23 -30.99 Q 59.23 -34.34 60.85 -37.09 Q 62.46 -39.83 65.21 -41.48 Q 67.95 -43.13 71.19 -43.13 L 71.19 -43.13 Q 74.48 -43.13 77.16 -41.48 Q 79.85 -39.83 81.47 -37.09 Q 83.08 -34.34 83.08 -30.99 L 83.08 -30.99 L 83.14 -11.65 Q 83.14 -8.3 81.53 -5.52 Q 79.91 -2.75 77.2 -1.07 Q 74.48 0.61 71.19 0.61 Z M 71.19 -6.77 L 71.19 -6.77 Q 73.02 -6.77 74.39 -8.27 Q 75.76 -9.76 75.76 -11.65 L 75.76 -11.65 L 75.7 -30.99 Q 75.7 -33 74.42 -34.4 Q 73.14 -35.81 71.19 -35.81 L 71.19 -35.81 Q 69.3 -35.81 67.95 -34.43 Q 66.61 -33.06 66.61 -30.99 L 66.61 -30.99 L 66.61 -11.65 Q 66.61 -9.64 67.95 -8.2 Q 69.3 -6.77 71.19 -6.77 Z M 94.92 0 L 88.08 0 Q 87.78 0 87.78 -0.3 L 87.78 -0.3 L 87.9 -42.21 Q 87.9 -42.46 88.14 -42.46 L 88.14 -42.46 L 107.66 -42.46 Q 107.97 -42.46 107.97 -42.21 L 107.97 -42.21 L 107.97 -35.32 Q 107.97 -35.07 107.73 -35.07 L 107.73 -35.07 L 95.22 -35.07 L 95.22 -25.62 L 107.73 -25.62 Q 107.97 -25.62 107.97 -25.31 L 107.97 -25.31 L 108.03 -18.42 Q 108.03 -18.18 107.73 -18.18 L 107.73 -18.18 L 95.22 -18.18 L 95.22 -0.3 Q 95.22 0 94.92 0 L 94.92 0 Z M 134.02 0 L 114.31 0 Q 114.07 0 114.07 -0.3 L 114.07 -0.3 L 114.13 -42.21 Q 114.13 -42.46 114.38 -42.46 L 114.38 -42.46 L 133.96 -42.46 Q 134.2 -42.46 134.2 -42.15 L 134.2 -42.15 L 134.2 -35.32 Q 134.2 -35.07 133.96 -35.07 L 133.96 -35.07 L 121.45 -35.07 L 121.45 -25.56 L 133.96 -25.56 Q 134.2 -25.56 134.2 -25.31 L 134.2 -25.31 L 134.26 -18.42 Q 134.26 -18.18 134.02 -18.18 L 134.02 -18.18 L 121.45 -18.18 L 121.45 -7.5 L 134.02 -7.5 Q 134.26 -7.5 134.26 -7.2 L 134.26 -7.2 L 134.26 -0.24 Q 134.26 0 134.02 0 L 134.02 0 Z M 149.69 0.61 L 149.69 0.61 Q 146.4 0.61 143.69 -1.07 Q 140.97 -2.75 139.35 -5.52 Q 137.74 -8.3 137.74 -11.65 L 137.74 -11.65 L 137.74 -14.46 Q 137.74 -14.76 138.04 -14.76 L 138.04 -14.76 L 144.88 -14.76 Q 145.12 -14.76 145.12 -14.46 L 145.12 -14.46 L 145.12 -11.65 Q 145.12 -9.64 146.46 -8.2 Q 147.8 -6.77 149.69 -6.77 L 149.69 -6.77 Q 151.58 -6.77 152.93 -8.23 Q 154.27 -9.7 154.27 -11.65 L 154.27 -11.65 Q 154.27 -13.91 151.34 -15.55 L 151.34 -15.55 Q 150.36 -16.1 148.29 -17.26 Q 146.22 -18.42 144.39 -19.46 L 144.39 -19.46 Q 141.03 -21.41 139.42 -24.37 Q 137.8 -27.33 137.8 -31.05 L 137.8 -31.05 Q 137.8 -34.46 139.45 -37.18 Q 141.09 -39.89 143.81 -41.48 Q 146.52 -43.07 149.69 -43.07 L 149.69 -43.07 Q 152.93 -43.07 155.64 -41.45 Q 158.36 -39.83 159.97 -37.12 Q 161.59 -34.4 161.59 -31.05 L 161.59 -31.05 L 161.59 -26.05 Q 161.59 -25.8 161.34 -25.8 L 161.34 -25.8 L 154.51 -25.8 Q 154.27 -25.8 154.27 -26.05 L 154.27 -26.05 L 154.21 -31.05 Q 154.21 -33.18 152.87 -34.53 Q 151.52 -35.87 149.69 -35.87 L 149.69 -35.87 Q 147.8 -35.87 146.46 -34.43 Q 145.12 -33 145.12 -31.05 L 145.12 -31.05 Q 145.12 -29.04 145.97 -27.69 Q 146.83 -26.35 149.08 -25.13 L 149.08 -25.13 Q 149.39 -24.95 150.27 -24.49 Q 151.16 -24.03 152.19 -23.45 Q 153.23 -22.88 154.06 -22.45 Q 154.88 -22.02 155.06 -21.9 L 155.06 -21.9 Q 158.11 -20.19 159.88 -17.72 Q 161.65 -15.25 161.65 -11.65 L 161.65 -11.65 Q 161.65 -8.17 160.03 -5.4 Q 158.42 -2.62 155.7 -1.01 Q 152.99 0.61 149.69 0.61 Z M 175.62 0.61 L 175.62 0.61 Q 172.32 0.61 169.61 -1.07 Q 166.9 -2.75 165.28 -5.52 Q 163.66 -8.3 163.66 -11.65 L 163.66 -11.65 L 163.66 -14.46 Q 163.66 -14.76 163.97 -14.76 L 163.97 -14.76 L 170.8 -14.76 Q 171.04 -14.76 171.04 -14.46 L 171.04 -14.46 L 171.04 -11.65 Q 171.04 -9.64 172.39 -8.2 Q 173.73 -6.77 175.62 -6.77 L 175.62 -6.77 Q 177.51 -6.77 178.85 -8.23 Q 180.19 -9.7 180.19 -11.65 L 180.19 -11.65 Q 180.19 -13.91 177.27 -15.55 L 177.27 -15.55 Q 176.29 -16.1 174.22 -17.26 Q 172.14 -18.42 170.31 -19.46 L 170.31 -19.46 Q 166.96 -21.41 165.34 -24.37 Q 163.72 -27.33 163.72 -31.05 L 163.72 -31.05 Q 163.72 -34.46 165.37 -37.18 Q 167.02 -39.89 169.73 -41.48 Q 172.45 -43.07 175.62 -43.07 L 175.62 -43.07 Q 178.85 -43.07 181.57 -41.45 Q 184.28 -39.83 185.9 -37.12 Q 187.51 -34.4 187.51 -31.05 L 187.51 -31.05 L 187.51 -26.05 Q 187.51 -25.8 187.27 -25.8 L 187.27 -25.8 L 180.44 -25.8 Q 180.19 -25.8 180.19 -26.05 L 180.19 -26.05 L 180.13 -31.05 Q 180.13 -33.18 178.79 -34.53 Q 177.45 -35.87 175.62 -35.87 L 175.62 -35.87 Q 173.73 -35.87 172.39 -34.43 Q 171.04 -33 171.04 -31.05 L 171.04 -31.05 Q 171.04 -29.04 171.9 -27.69 Q 172.75 -26.35 175.01 -25.13 L 175.01 -25.13 Q 175.31 -24.95 176.2 -24.49 Q 177.08 -24.03 178.12 -23.45 Q 179.16 -22.88 179.98 -22.45 Q 180.8 -22.02 180.99 -21.9 L 180.99 -21.9 Q 184.04 -20.19 185.81 -17.72 Q 187.57 -15.25 187.57 -11.65 L 187.57 -11.65 Q 187.57 -8.17 185.96 -5.4 Q 184.34 -2.62 181.63 -1.01 Q 178.91 0.61 175.62 0.61 Z M 199.04 0 L 192.15 0 Q 191.84 0 191.84 -0.3 L 191.84 -0.3 L 191.91 -42.21 Q 191.91 -42.46 192.15 -42.46 L 192.15 -42.46 L 198.98 -42.46 Q 199.23 -42.46 199.23 -42.21 L 199.23 -42.21 L 199.29 -0.3 Q 199.29 0 199.04 0 L 199.04 0 Z M 215.94 0.61 L 215.94 0.61 Q 212.65 0.61 209.93 -1.07 Q 207.22 -2.75 205.57 -5.52 Q 203.92 -8.3 203.92 -11.65 L 203.92 -11.65 L 203.98 -30.99 Q 203.98 -34.34 205.6 -37.09 Q 207.22 -39.83 209.96 -41.48 Q 212.71 -43.13 215.94 -43.13 L 215.94 -43.13 Q 219.23 -43.13 221.92 -41.48 Q 224.6 -39.83 226.22 -37.09 Q 227.84 -34.34 227.84 -30.99 L 227.84 -30.99 L 227.9 -11.65 Q 227.9 -8.3 226.28 -5.52 Q 224.66 -2.75 221.95 -1.07 Q 219.23 0.61 215.94 0.61 Z M 215.94 -6.77 L 215.94 -6.77 Q 217.77 -6.77 219.14 -8.27 Q 220.52 -9.76 220.52 -11.65 L 220.52 -11.65 L 220.45 -30.99 Q 220.45 -33 219.17 -34.4 Q 217.89 -35.81 215.94 -35.81 L 215.94 -35.81 Q 214.05 -35.81 212.71 -34.43 Q 211.37 -33.06 211.37 -30.99 L 211.37 -30.99 L 211.37 -11.65 Q 211.37 -9.64 212.71 -8.2 Q 214.05 -6.77 215.94 -6.77 Z M 239.18 0 L 233.08 0 Q 232.59 0 232.59 -0.43 L 232.59 -0.43 L 232.53 -41.97 Q 232.53 -42.46 233.02 -42.46 L 233.02 -42.46 L 238.51 -42.46 L 248.82 -18.42 L 248.51 -41.97 Q 248.51 -42.46 249.06 -42.46 L 249.06 -42.46 L 255.1 -42.46 Q 255.47 -42.46 255.47 -41.97 L 255.47 -41.97 L 255.53 -0.37 Q 255.53 0 255.22 0 L 255.22 0 L 249.86 0 L 239.3 -22.45 L 239.73 -0.49 Q 239.73 0 239.18 0 L 239.18 0 Z M 258.76 -0.3 L 258.76 -0.3 L 266.33 -42.21 Q 266.39 -42.46 266.63 -42.46 L 266.63 -42.46 L 275.48 -42.46 Q 275.72 -42.46 275.78 -42.21 L 275.78 -42.21 L 283.04 -0.3 Q 283.1 0 282.8 0 L 282.8 0 L 276.03 0 Q 275.78 0 275.72 -0.3 L 275.72 -0.3 L 275.05 -4.76 L 266.75 -4.76 L 266.08 -0.3 Q 266.02 0 265.78 0 L 265.78 0 L 259.01 0 Q 258.76 0 258.76 -0.3 Z M 270.72 -28.43 L 267.97 -11.29 L 273.83 -11.29 L 271.33 -28.43 L 270.96 -30.68 L 270.72 -28.43 Z M 306.83 0 L 287.13 0 Q 286.88 0 286.88 -0.3 L 286.88 -0.3 L 286.94 -42.15 Q 286.94 -42.46 287.25 -42.46 L 287.25 -42.46 L 294.02 -42.46 Q 294.33 -42.46 294.33 -42.15 L 294.33 -42.15 L 294.26 -7.5 L 306.83 -7.5 Q 307.14 -7.5 307.14 -7.2 L 307.14 -7.2 L 307.14 -0.3 Q 307.14 0 306.83 0 L 306.83 0 Z M 328.91 0.61 L 328.91 0.61 Q 325.56 0.61 322.84 -1.07 Q 320.13 -2.75 318.54 -5.55 Q 316.96 -8.36 316.96 -11.83 L 316.96 -11.83 L 317.02 -30.87 Q 317.02 -34.22 318.57 -37 Q 320.13 -39.77 322.84 -41.45 Q 325.56 -43.13 328.91 -43.13 L 328.91 -43.13 Q 332.27 -43.13 334.95 -41.48 Q 337.64 -39.83 339.22 -37.06 Q 340.81 -34.28 340.81 -30.87 L 340.81 -30.87 L 340.81 -28.06 Q 340.81 -27.82 340.56 -27.82 L 340.56 -27.82 L 333.73 -27.82 Q 333.49 -27.82 333.49 -28.06 L 333.49 -28.06 L 333.49 -30.87 Q 333.49 -32.88 332.18 -34.34 Q 330.86 -35.81 328.91 -35.81 L 328.91 -35.81 Q 326.72 -35.81 325.56 -34.31 Q 324.4 -32.82 324.4 -30.87 L 324.4 -30.87 L 324.4 -11.83 Q 324.4 -9.58 325.71 -8.17 Q 327.02 -6.77 328.91 -6.77 L 328.91 -6.77 Q 330.86 -6.77 332.18 -8.33 Q 333.49 -9.88 333.49 -11.83 L 333.49 -11.83 L 333.49 -14.64 Q 333.49 -14.88 333.73 -14.88 L 333.73 -14.88 L 340.62 -14.88 Q 340.87 -14.88 340.87 -14.64 L 340.87 -14.64 L 340.87 -11.83 Q 340.87 -8.36 339.25 -5.55 Q 337.64 -2.75 334.95 -1.07 Q 332.27 0.61 328.91 0.61 Z M 356.61 0.61 L 356.61 0.61 Q 353.31 0.61 350.6 -1.07 Q 347.88 -2.75 346.24 -5.52 Q 344.59 -8.3 344.59 -11.65 L 344.59 -11.65 L 344.65 -30.99 Q 344.65 -34.34 346.27 -37.09 Q 347.88 -39.83 350.63 -41.48 Q 353.37 -43.13 356.61 -43.13 L 356.61 -43.13 Q 359.9 -43.13 362.58 -41.48 Q 365.27 -39.83 366.88 -37.09 Q 368.5 -34.34 368.5 -30.99 L 368.5 -30.99 L 368.56 -11.65 Q 368.56 -8.3 366.95 -5.52 Q 365.33 -2.75 362.61 -1.07 Q 359.9 0.61 356.61 0.61 Z M 356.61 -6.77 L 356.61 -6.77 Q 358.44 -6.77 359.81 -8.27 Q 361.18 -9.76 361.18 -11.65 L 361.18 -11.65 L 361.12 -30.99 Q 361.12 -33 359.84 -34.4 Q 358.56 -35.81 356.61 -35.81 L 356.61 -35.81 Q 354.72 -35.81 353.37 -34.43 Q 352.03 -33.06 352.03 -30.99 L 352.03 -30.99 L 352.03 -11.65 Q 352.03 -9.64 353.37 -8.2 Q 354.72 -6.77 356.61 -6.77 Z M 379.85 0 L 373.75 0 Q 373.26 0 373.26 -0.43 L 373.26 -0.43 L 373.2 -41.97 Q 373.2 -42.46 373.69 -42.46 L 373.69 -42.46 L 379.18 -42.46 L 389.49 -18.42 L 389.18 -41.97 Q 389.18 -42.46 389.73 -42.46 L 389.73 -42.46 L 395.77 -42.46 Q 396.13 -42.46 396.13 -41.97 L 396.13 -41.97 L 396.2 -0.37 Q 396.2 0 395.89 0 L 395.89 0 L 390.52 0 L 379.97 -22.45 L 380.4 -0.49 Q 380.4 0 379.85 0 L 379.85 0 Z M 411.87 0.61 L 411.87 0.61 Q 408.58 0.61 405.86 -1.07 Q 403.15 -2.75 401.53 -5.52 Q 399.92 -8.3 399.92 -11.65 L 399.92 -11.65 L 399.92 -14.46 Q 399.92 -14.76 400.22 -14.76 L 400.22 -14.76 L 407.05 -14.76 Q 407.3 -14.76 407.3 -14.46 L 407.3 -14.46 L 407.3 -11.65 Q 407.3 -9.64 408.64 -8.2 Q 409.98 -6.77 411.87 -6.77 L 411.87 -6.77 Q 413.76 -6.77 415.11 -8.23 Q 416.45 -9.7 416.45 -11.65 L 416.45 -11.65 Q 416.45 -13.91 413.52 -15.55 L 413.52 -15.55 Q 412.54 -16.1 410.47 -17.26 Q 408.4 -18.42 406.56 -19.46 L 406.56 -19.46 Q 403.21 -21.41 401.59 -24.37 Q 399.98 -27.33 399.98 -31.05 L 399.98 -31.05 Q 399.98 -34.46 401.62 -37.18 Q 403.27 -39.89 405.99 -41.48 Q 408.7 -43.07 411.87 -43.07 L 411.87 -43.07 Q 415.11 -43.07 417.82 -41.45 Q 420.53 -39.83 422.15 -37.12 Q 423.77 -34.4 423.77 -31.05 L 423.77 -31.05 L 423.77 -26.05 Q 423.77 -25.8 423.52 -25.8 L 423.52 -25.8 L 416.69 -25.8 Q 416.45 -25.8 416.45 -26.05 L 416.45 -26.05 L 416.39 -31.05 Q 416.39 -33.18 415.04 -34.53 Q 413.7 -35.87 411.87 -35.87 L 411.87 -35.87 Q 409.98 -35.87 408.64 -34.43 Q 407.3 -33 407.3 -31.05 L 407.3 -31.05 Q 407.3 -29.04 408.15 -27.69 Q 409 -26.35 411.26 -25.13 L 411.26 -25.13 Q 411.57 -24.95 412.45 -24.49 Q 413.34 -24.03 414.37 -23.45 Q 415.41 -22.88 416.23 -22.45 Q 417.06 -22.02 417.24 -21.9 L 417.24 -21.9 Q 420.29 -20.19 422.06 -17.72 Q 423.83 -15.25 423.83 -11.65 L 423.83 -11.65 Q 423.83 -8.17 422.21 -5.4 Q 420.6 -2.62 417.88 -1.01 Q 415.17 0.61 411.87 0.61 Z M 440.79 0 L 433.89 0 Q 433.65 0 433.65 -0.3 L 433.65 -0.3 L 433.65 -35.07 L 425.72 -35.07 Q 425.41 -35.07 425.41 -35.38 L 425.41 -35.38 L 425.48 -42.21 Q 425.48 -42.46 425.72 -42.46 L 425.72 -42.46 L 448.9 -42.46 Q 449.2 -42.46 449.2 -42.21 L 449.2 -42.21 L 449.2 -35.38 Q 449.2 -35.07 448.96 -35.07 L 448.96 -35.07 L 440.97 -35.07 L 441.03 -0.3 Q 441.03 0 440.79 0 L 440.79 0 Z M 459.33 0 L 452.44 0 Q 452.19 0 452.19 -0.3 L 452.19 -0.3 L 452.31 -42.21 Q 452.31 -42.46 452.56 -42.46 L 452.56 -42.46 L 464.88 -42.46 Q 468.18 -42.46 470.95 -40.84 Q 473.73 -39.22 475.37 -36.51 Q 477.02 -33.79 477.02 -30.38 L 477.02 -30.38 Q 477.02 -28.12 476.35 -26.32 Q 475.68 -24.52 474.76 -23.27 Q 473.85 -22.02 473.12 -21.41 L 473.12 -21.41 Q 476.41 -17.75 476.41 -12.81 L 476.41 -12.81 L 476.47 -0.3 Q 476.47 0 476.17 0 L 476.17 0 L 469.27 0 Q 469.03 0 469.03 -0.18 L 469.03 -0.18 L 469.03 -12.81 Q 469.03 -15.01 467.47 -16.62 Q 465.92 -18.24 463.66 -18.24 L 463.66 -18.24 L 459.63 -18.24 L 459.57 -0.3 Q 459.57 0 459.33 0 L 459.33 0 Z M 459.63 -35.14 L 459.63 -25.56 L 464.88 -25.56 Q 466.77 -25.56 468.24 -26.96 Q 469.7 -28.36 469.7 -30.38 L 469.7 -30.38 Q 469.7 -32.33 468.27 -33.73 Q 466.83 -35.14 464.88 -35.14 L 464.88 -35.14 L 459.63 -35.14 Z M 492.82 0.61 L 492.82 0.61 Q 489.59 0.61 486.84 -1.07 Q 484.1 -2.75 482.48 -5.55 Q 480.86 -8.36 480.86 -11.71 L 480.86 -11.71 L 480.98 -42.21 Q 480.98 -42.46 481.23 -42.46 L 481.23 -42.46 L 488.06 -42.46 Q 488.3 -42.46 488.3 -42.21 L 488.3 -42.21 L 488.3 -11.71 Q 488.3 -9.64 489.62 -8.2 Q 490.93 -6.77 492.82 -6.77 L 492.82 -6.77 Q 494.77 -6.77 496.08 -8.2 Q 497.39 -9.64 497.39 -11.71 L 497.39 -11.71 L 497.39 -42.21 Q 497.39 -42.46 497.64 -42.46 L 497.64 -42.46 L 504.47 -42.46 Q 504.71 -42.46 504.71 -42.21 L 504.71 -42.21 L 504.84 -11.71 Q 504.84 -8.3 503.22 -5.49 Q 501.6 -2.68 498.89 -1.04 Q 496.17 0.61 492.82 0.61 Z M 520.88 0.61 L 520.88 0.61 Q 517.52 0.61 514.81 -1.07 Q 512.1 -2.75 510.51 -5.55 Q 508.92 -8.36 508.92 -11.83 L 508.92 -11.83 L 508.98 -30.87 Q 508.98 -34.22 510.54 -37 Q 512.1 -39.77 514.81 -41.45 Q 517.52 -43.13 520.88 -43.13 L 520.88 -43.13 Q 524.23 -43.13 526.92 -41.48 Q 529.6 -39.83 531.19 -37.06 Q 532.77 -34.28 532.77 -30.87 L 532.77 -30.87 L 532.77 -28.06 Q 532.77 -27.82 532.53 -27.82 L 532.53 -27.82 L 525.7 -27.82 Q 525.45 -27.82 525.45 -28.06 L 525.45 -28.06 L 525.45 -30.87 Q 525.45 -32.88 524.14 -34.34 Q 522.83 -35.81 520.88 -35.81 L 520.88 -35.81 Q 518.68 -35.81 517.52 -34.31 Q 516.37 -32.82 516.37 -30.87 L 516.37 -30.87 L 516.37 -11.83 Q 516.37 -9.58 517.68 -8.17 Q 518.99 -6.77 520.88 -6.77 L 520.88 -6.77 Q 522.83 -6.77 524.14 -8.33 Q 525.45 -9.88 525.45 -11.83 L 525.45 -11.83 L 525.45 -14.64 Q 525.45 -14.88 525.7 -14.88 L 525.7 -14.88 L 532.59 -14.88 Q 532.83 -14.88 532.83 -14.64 L 532.83 -14.64 L 532.83 -11.83 Q 532.83 -8.36 531.22 -5.55 Q 529.6 -2.75 526.92 -1.07 Q 524.23 0.61 520.88 0.61 Z M 549.49 0 L 542.59 0 Q 542.35 0 542.35 -0.3 L 542.35 -0.3 L 542.35 -35.07 L 534.42 -35.07 Q 534.12 -35.07 534.12 -35.38 L 534.12 -35.38 L 534.18 -42.21 Q 534.18 -42.46 534.42 -42.46 L 534.42 -42.46 L 557.6 -42.46 Q 557.91 -42.46 557.91 -42.21 L 557.91 -42.21 L 557.91 -35.38 Q 557.91 -35.07 557.66 -35.07 L 557.66 -35.07 L 549.67 -35.07 L 549.73 -0.3 Q 549.73 0 549.49 0 L 549.49 0 Z M 568.09 0 L 561.2 0 Q 560.89 0 560.89 -0.3 L 560.89 -0.3 L 560.96 -42.21 Q 560.96 -42.46 561.2 -42.46 L 561.2 -42.46 L 568.03 -42.46 Q 568.28 -42.46 568.28 -42.21 L 568.28 -42.21 L 568.34 -0.3 Q 568.34 0 568.09 0 L 568.09 0 Z M 584.99 0.61 L 584.99 0.61 Q 581.7 0.61 578.98 -1.07 Q 576.27 -2.75 574.62 -5.52 Q 572.97 -8.3 572.97 -11.65 L 572.97 -11.65 L 573.03 -30.99 Q 573.03 -34.34 574.65 -37.09 Q 576.27 -39.83 579.01 -41.48 Q 581.76 -43.13 584.99 -43.13 L 584.99 -43.13 Q 588.28 -43.13 590.97 -41.48 Q 593.65 -39.83 595.27 -37.09 Q 596.88 -34.34 596.88 -30.99 L 596.88 -30.99 L 596.95 -11.65 Q 596.95 -8.3 595.33 -5.52 Q 593.71 -2.75 591 -1.07 Q 588.28 0.61 584.99 0.61 Z M 584.99 -6.77 L 584.99 -6.77 Q 586.82 -6.77 588.19 -8.27 Q 589.56 -9.76 589.56 -11.65 L 589.56 -11.65 L 589.5 -30.99 Q 589.5 -33 588.22 -34.4 Q 586.94 -35.81 584.99 -35.81 L 584.99 -35.81 Q 583.1 -35.81 581.76 -34.43 Q 580.41 -33.06 580.41 -30.99 L 580.41 -30.99 L 580.41 -11.65 Q 580.41 -9.64 581.76 -8.2 Q 583.1 -6.77 584.99 -6.77 Z M 608.23 0 L 602.13 0 Q 601.64 0 601.64 -0.43 L 601.64 -0.43 L 601.58 -41.97 Q 601.58 -42.46 602.07 -42.46 L 602.07 -42.46 L 607.56 -42.46 L 617.87 -18.42 L 617.56 -41.97 Q 617.56 -42.46 618.11 -42.46 L 618.11 -42.46 L 624.15 -42.46 Q 624.52 -42.46 624.52 -41.97 L 624.52 -41.97 L 624.58 -0.37 Q 624.58 0 624.27 0 L 624.27 0 L 618.91 0 L 608.35 -22.45 L 608.78 -0.49 Q 608.78 0 608.23 0 L 608.23 0 Z" stroke-linecap="round" />
</g>
</svg>